<?xml version="1.0" encoding="UTF-8"?>
<svg width="30.692mm" height="14.975mm" version="1.1" viewBox="0 0 30.691767 14.974522" xmlns="http://www.w3.org/2000/svg" xmlns:cc="http://creativecommons.org/ns#" xmlns:dc="http://purl.org/dc/elements/1.1/" xmlns:rdf="http://www.w3.org/1999/02/22-rdf-syntax-ns#">
<metadata>
<rdf:RDF>
<cc:Work rdf:about="">
<dc:format>image/svg+xml</dc:format>
<dc:type rdf:resource="http://purl.org/dc/dcmitype/StillImage"/>
<dc:title/>
</cc:Work>
</rdf:RDF>
</metadata>
<g transform="translate(-17.464 -40.722)">
<g transform="translate(0 7.4186)" fill="#d2492a" aria-label="W">
<path d="m26.099 38.02h-0.95085v-0.81649h2.8525v0.81649h-0.92501l-1.4986 5.4725h0.67696v0.81649h-2.8525v-0.81649h0.77515l-1.4521-5.1625-1.4521 5.1625h0.67179v0.81649h-2.8525v-0.81649h0.73897l-1.4521-5.4725h-0.91467v-0.81649h2.8525v0.81649h-0.94568l1.1576 5.0126 1.633-5.8291h1.1731l1.54 5.8033z" fill="#d2492a" stroke-width=".26458"/>
</g>
<flowRoot transform="scale(.26458)" fill="#000000" font-family="sans-serif" font-size="40px" letter-spacing="0px" word-spacing="0px" style="line-height:1.25" xml:space="preserve"><flowRegion><rect x="80.812" y="180.55" width="56.316" height="80.56"/></flowRegion><flowPara/></flowRoot>
<g fill="#d2492a" aria-label="R">
<path d="m42.497 47.733h1.974q0.63562 0 0.99219-0.13436 0.3514-0.12919 0.53227-0.40824 0.18087-0.28422 0.18087-0.61495 0-0.49093-0.3514-0.80098-0.3514-0.31523-1.1265-0.31523h-2.2014zm2.8009 3.1781h0.73897l-0.42375-0.66663q-0.77515-1.1989-1.1369-1.4314-0.20154-0.12919-0.41341-0.18087-0.1602-0.03617-0.51676-0.03617h-1.049v2.3151h0.93018v0.81649h-2.8525v-0.81649h0.93018v-5.4725h-0.93018v-0.81649h4.0824q0.94568 0 1.4469 0.1912 0.49609 0.1912 0.79582 0.68213 0.29972 0.48576 0.29972 1.08 0 0.75964-0.49609 1.2816-0.47026 0.49609-1.4211 0.65112 0.72347 0.41341 1.9947 2.403h0.8785v0.81649h-2.8577z" fill="#d2492a" stroke-width=".26458"/>
</g>
<text x="37.48455" y="52.715652" fill="#000000" font-family="sans-serif" font-size="10.583px" letter-spacing="0px" stroke-width=".26458" word-spacing="0px" style="line-height:1.25" xml:space="preserve"><tspan x="37.48455" y="52.715652" stroke-width=".26458"/></text>
<flowRoot transform="translate(9.9411 3.5404)" fill="#000000" font-family="sans-serif" font-size="10.583px" letter-spacing="0px" stroke-width=".26458" word-spacing="0px" style="line-height:1.25" xml:space="preserve"><flowRegion><rect x="17.387" y="34.685" width="111.88" height="219.98" stroke-width=".070004"/></flowRegion><flowPara font-family="'DejaVu Serif'"/></flowRoot>
<g transform="matrix(.14975 0 0 .14975 27.917 40.722)" fill="#21314d">
<path d="m39.134 0c1.393 5.851 3.535 11.078 6.43 15.679 2.892 4.604 8.046 10.304 15.467 17.1 7.419 6.797 12.119 12.01 14.103 15.637 1.98 3.628 2.974 7.312 2.974 11.049 0 5.198-1.716 9.53-5.144 12.996-3.429 3.465-7.606 5.199-12.535 5.199-4.179 0-7.97-1.312-11.371-3.939-3.402-2.626-6.415-6.459-9.039-11.495 0.052 7.96 1.085 14.284 3.095 18.968 2.007 4.685 5.223 8.368 9.642 11.048 4.418 2.682 10.298 4.266 17.637 4.75l0.561 3.008h-63.72l0.642-3.009c9.856 0 17.502-2.908 22.941-8.73 5.437-5.82 8.047-14.499 7.834-26.035-2.411 5.146-5.396 9.005-8.959 11.576-3.562 2.572-7.593 3.858-12.093 3.858-4.821 0-8.959-1.759-12.414-5.281-3.456-3.519-5.185-7.741-5.185-12.671 0-3.953 0.886-7.528 2.654-10.724 2.41-4.44 6.318-8.907 11.73-13.404 5.411-4.495 9.403-8.203 11.973-11.128 3.91-4.495 6.763-8.501 8.558-12.022 1.795-3.52 3.202-7.663 4.219-12.43z" fill="#21314d"/>
</g>
</g>
</svg>
